/* XPM */
static char *d54a647c772040d38df596e0374333e8uZpBDSRbJeC1Sfa6[] = {
/* columns rows colors chars-per-pixel */
"50 50 158 2 ",
"   c #020416",
".  c #040A17",
"X  c #03061A",
"o  c #050A1C",
"O  c #090C1E",
"+  c #0A131E",
"@  c #0A1C1E",
"#  c #072219",
"$  c #0E251D",
"%  c #0C2B1D",
"&  c #0F371C",
"*  c #0E3B1E",
"=  c #11331E",
"-  c #060D20",
";  c #0A0E21",
":  c #0D0F28",
">  c #100F21",
",  c #0C1324",
"<  c #0D1A23",
"1  c #0F1628",
"2  c #0F1929",
"3  c #111626",
"4  c #121926",
"5  c #111629",
"6  c #141B2B",
"7  c #181E2E",
"8  c #171E30",
"9  c #191E32",
"0  c #0E2324",
"q  c #122425",
"w  c #132C25",
"e  c #16212D",
"r  c #19222E",
"t  c #152B2B",
"y  c #192D2D",
"u  c #143425",
"i  c #183426",
"p  c #133924",
"a  c #193C24",
"s  c #16332C",
"d  c #1A342C",
"f  c #163C29",
"g  c #1A3B2D",
"h  c #172232",
"j  c #1C2433",
"k  c #1E2935",
"l  c #1E2639",
"z  c #1E2939",
"x  c #1D3332",
"c  c #1D3A33",
"v  c #1F3239",
"b  c #202736",
"n  c #212A36",
"m  c #202639",
"M  c #222B3C",
"N  c #282F3F",
"B  c #213535",
"V  c #213B35",
"C  c #22333B",
"Z  c #2A323F",
"A  c #253B3B",
"S  c #283A3E",
"D  c #17412B",
"F  c #1A412F",
"G  c #1E4532",
"H  c #1E4A34",
"J  c #1F4838",
"K  c #214434",
"L  c #25423C",
"P  c #28433E",
"I  c #25493F",
"U  c #284A3A",
"Y  c #272F42",
"T  c #252D41",
"R  c #282F42",
"E  c #273141",
"W  c #293144",
"Q  c #2A3245",
"!  c #2B3147",
"~  c #2B3346",
"^  c #2D3245",
"/  c #2C3346",
"(  c #2B3445",
")  c #2D3447",
"_  c #2A3244",
"`  c #2A3D42",
"'  c #2D3548",
"]  c #2F3B49",
"[  c #2E394A",
"{  c #31364A",
"}  c #30374A",
"|  c #32354B",
" . c #313A4B",
".. c #313D4B",
"X. c #333C4B",
"o. c #333B4E",
"O. c #313D4D",
"+. c #363D4F",
"@. c #333C4D",
"#. c #363F50",
"$. c #353E51",
"%. c #3A3F52",
"&. c #2D4545",
"*. c #2A4342",
"=. c #2C4B44",
"-. c #304244",
";. c #324A4A",
":. c #334B4F",
">. c #374254",
",. c #364253",
"<. c #384152",
"1. c #384053",
"2. c #394253",
"3. c #384355",
"4. c #384454",
"5. c #3A4557",
"6. c #394657",
"7. c #3A4656",
"8. c #3B4757",
"9. c #3C4457",
"0. c #3D4457",
"q. c #3D4657",
"w. c #3A4455",
"e. c #384A54",
"r. c #3B4B56",
"t. c #3A4559",
"y. c #3B4658",
"u. c #3A4758",
"i. c #3B465A",
"p. c #3C4759",
"a. c #3E4759",
"s. c #3D455A",
"d. c #3E445A",
"f. c #3F455B",
"g. c #3C475B",
"h. c #3F475A",
"j. c #3E465B",
"k. c #3B475D",
"l. c #3C475D",
"z. c #3F475C",
"x. c #3E465A",
"c. c #384858",
"v. c #3B4858",
"b. c #3B4859",
"n. c #3B485B",
"m. c #3A4A5A",
"M. c #3C4858",
"N. c #3C4959",
"B. c #3D4959",
"V. c #3F4859",
"C. c #3D485A",
"Z. c #3D4A5A",
"A. c #3E4A5A",
"S. c #3D485C",
"D. c #3E4A5A",
"F. c #40475A",
"G. c #40485B",
"H. c #414A5B",
/* pixels */
"6 O O O O O O ; - O O o O ; ; O O - - - O O O ; O O O O O O O O O O O O O - X O O O O O O ; - O O 3 ",
"X ) a.y.z.a.c.c.8.:.&.s q 6 1.9.y.y.a.a.a.V.a.9.5 X { 9.c.c.S.k.c.z.a.a.{ X 5 9.V.y.y.y.y.y.y.a.1.6 ",
", 6 V.G.y.8.e.J L ;.a = d 9 m 8.y.V.a.V.V.V.V.7 5 M , +.a.V.8.V.V.c.V.$.; 9 ^ 6 V.V.a.a.V.V.a.a.l O ",
", a., M + 5 j , s f p D V Q Y X , 5 h 5 4 h 1 k h M a.5 9 7 O k , 7 j , z 9 1.O.3 h 6 6 7 , e 5 9 1 ",
", V., b , 7 j < y d w s r ^ ~ , 7 5 h 6 6 j 5 z h N y.e r 7 1 n 3 7 k 1 M 9 >.o., h 7 6 r 4 e 7 j 5 ",
", V.j k h j k h n k d d d Q X.k k j k j j k h M j T V.U B k h n j j z h M 9 8. .X , j j k j k k m 5 ",
", V.O m ; 1 k , j 6 0 d t Q ~ 3 r 2 7 5 5 r 1 k j M V.F c 6 + k , 5 k , m 9 1.X.O ; 6 4 r , h 5 9 5 ",
", V.h k r r k r k k C v k Q [ j k j j j k k h m h M V.V d k e m k k k j M 9 1.1.7 5 j k k h l k m 5 ",
", V.1 z , 6 k , j 6 5 C x Q ~ 5 h 5 r 7 5 j 5 k h M V.x u y @ n 1 9 k 1 M 9 1.+.3 h 7 5 h , h 7 h 5 ",
"; V., z 1 6 5 X 3 4 6 C C ^ ) 6 h 5 r 7 6 h 3 k h M V.g u w + C 1 e k 1 M 9 8.+.3 h 7 6 7 1 7 6 h 5 ",
", a.5 m 6 6 X X X , 9 M k Q [ h j 7 k h 7 j 7 m h M V.g f g t A x k k 7 m 9 8.$.7 k h 7 k 7 h h k 5 ",
"O W 5 m 1 6 5 5 5 5 5 7 7 j m 9 j 7 h 9 7 k 6 9 5 j W B x c y n x k m 6 9 6 ^ T 6 k h 7 j 5 h h 6 , ",
", , 5 1 1 5 5 5 5 5 1 O , , , 5 5 5 5 5 5 5 5 ; O 1 O 1 5 5 5 5 5 1 5 5 ; , 3 O 5 5 5 5 5 5 5 5 , ; ",
"; j l l k k l l l m z 9 X 1 k m k k m m m m m m : O j m m l l l l m m l j O ; m m m m m m m m m b 5 ",
"O 9 V.Z.Z.r.V.Z.Z.Z.<.9 5 7 Q H.H.H.H.G.H.H.H.M 5 6 9 9.H.S.S.S.S.H.S.9.9 5 l M H.H.r.=.-.&.P *.n , ",
", Q I K =.K S *.P ` k h k M Y N W M W N M ) M h 7 N Q j M Y m ~ M E ~ l 9 j +.W M E C y B y u g t 1 ",
", V.0 s 0 % y c k e 4 M j ' Q 5 h 1 7 4 3 h 1 k j M a., O 7 O k , 6 k ; M 9 8.$., r 6 , e t p % q 2 ",
", V.O + w w d x k j j M j Q o.j k h k j j k h M r N r.,   O 7 k 7 h , X 1 9 1.1.h j k h j y d d d 5 ",
", G.X   + < K , j 6 3 M j Q ~ 6 h 1 7 4 5 h 1 k r M V., X , O n , 4 6 X O h 1.o.1 r 6 3 7 + e q w 2 ",
", V.  O 6 y x 5 k h h M j Q [ e h 7 j 7 7 k r k k C 9.j O 9 6 b 7 h j   ; 9 1.<.7 k h 7 h 7 j e k 6 ",
", V.5 j 7 r k 7 l j j M j Q [ j j r k j h k e k x E a.k h j 7 k h h m 7 l 9 >.<.h j j r k r j h x 6 ",
", V.O m O 1 j O r 4 1 M j ^ ) , e 1 7 3 , r + j s C a., 7 6 o m O 4 k O M 9 >.o., r 5 1 7 + 6 5 e 7 ",
", V.k z k k b k k j m M j Q +.b k k b n n k k M x ` H.M b k k k m b k k N 9 1.8.k k k b b k k k M 5 ",
", 1.- m , 1 k , k 5 1 m j R N 5 h 1 9 5 5 j , h t w X.1 9 9 ; m , 6 k , l 9 1.{ 1 j 7 5 9 , 7 6 9 5 ",
"O 6 l z z m z z n l k 1 , , 9 m k m k z k x x q w x d z z z z z m n m k , , 7 6 m z z m z k z z 9 ; ",
"6 O X X X X O O O O O o O ; O O o O o . O t < . o ; o O X O O O O o O o O ; X o X . X X o X X o o 3 ",
"  { a.a.a.a.a.a.a.z.a.) X 6 1.a.z.a.z.z.a.V.V.a.5 X | a.a.a.z.a.a.z.a.a.| X 5 G.a.8.a.9.y.a.a.a.%.6 ",
", 7 8.9.8.8.8.8.y.9.[ 1 j 9 m 8.8.8.a.8.8.9.9.7 5 M 5 O.8.8.8.a.8.a.a.+.- 9 Q 9 4.e.8.8.8.4.9.9.l - ",
"- V., m 1 4 j , j 6 5 C k Q ' 6 r 4 e 6 5 j 5 z 9 M a.5 j h + n 1 e l 1 m 9 >.$.5 j 6 6 r 1 h 9 j 5 ",
"; G., k + 4 j , j 6 3 M k Q ~ 5 h 4 7 4 4 r , k h N G.3 h r + z , 7 k , m 9 8.$.1 j 7 5 r , h 5 h 5 ",
"O 9.L k h j k h n j j M k Q ] j n j j j j k j M h R F.k k k r b h j z j m 9 8.1.j k k k k h k k z 5 ",
"O V., z + 4 k , j 5 3 M j Q ~ 4 r 1 5 ; ; 6 , k h N a.3 h 7 O m , 5 j , M h 8.+., j 6 4 e , 7 5 9 5 ",
"- 8.f x r h b h k k k M j Q o.j k j 3 X X , r M h N V.l k k h b h j b j M h 8.1.j k k r j r k j m 6 ",
"+ 9.K d 6 e b 4 k h 7 M j W ' 7 j 7 5 O O 6 5 m h N G.9 h r 4 m 6 h l 6 N h 1.1.7 j h 7 r 4 e 7 k 5 ",
"; e.G u q 0 k , k 7 5 N k Q ' 6 9 5 r 7 6 h 3 k r N V.6 h 7 , m 1 r j 3 M 9 1.+.5 e , O 5 1 h 7 k 5 ",
"; 8.u * H e s d m h h N j W [ h k 7 j h 7 k 7 m h N y.h k j 7 z 7 h b 7 m 9 >.$.e 6 X X , 7 k k k 2 ",
"O R x u s q y d l h 6 j 6 b m 9 j 6 h 7 9 j 6 h 5 9 R 6 k h 5 m 2 t k 1 j h T M 7 9 1 3 5 6 j 9 6 1 ",
", ; , , , 3 < 2 5 5 3 ; O , , 3 3 5 1 1 3 1 1 , ; ; ; 1 5 1 1 5 < s s 4 t 5 , , 5 1 1 5 5 5 1 5 ; , ",
", 9 m m l l m m m l l 9 X , l m k k m l l m m m , X j l l l l k k x p $ u 0 , m j k k k k k k k k 5 ",
"- j G.G.V.m.A.A.V.V.<.7 5 6 R F.a.G.V.V.G.G.V.M 5 6 9 1.G.a.G.r.P L H & = s k M F.a.G.G.a.a.a.F.Q , ",
"- ) N S A A S A E W m h k z E W W N W W W ) R j 7 N Q N ^ W M *.w F f * p d X.W N ^ W W Z N E W l , ",
"- V.+ G u i g @ j 6 5 M j Q ~ 6 h 4 7 6 5 h 1 k j N F.3 h 7 O k s w u # p s 4.O.3 h 7 5 7 , 6 5 j 6 ",
"- V.x c f u p w j j k M k W O.j k h k j j k h M h M F.k j k h k f y d r x t 8.1.h k j h k h j j l 5 ",
"; a.< k + + d @ A 5 3 M j Q ~ 5 7 , 7 4 4 h 1 k j M V.3 r 7 , P + e d + M e 1.O., r 6 5 h , e 6 h 5 ",
"; V., 6 X X 6 6 m 9 7 N j Q ' 7 h 6 h 7 6 h 5 m j M 9.7 j h 1 C 5 h n 3 C k 1.<.4 j h 7 r 5 h 7 k 5 ",
"; a.h k 6 5 j h l k j M j W  .j k j k j r k j M j M a.k j 5 h ; h k n j M r 3.<.j k k j j j k j z 1 ",
"- V.o n O 1 j O j 5 1 M h R W 1 7 , 7 4 , e , k h N a., r 6 o X O 6 h o M e 1.+.+ h 6 , e + 6 1 9 5 ",
"- a.z m b b m k k b k M k Q o.k b k k b k b k M h N F.M j O   X X 5 b k m 9 >.1.k k m k k j k k m 5 ",
"; O.1 M 1 5 k 1 k 7 1 k j N M 6 j 5 h 7 6 j 5 9 9 Y { 6 , , : : > 1 z 3 h 9 $.E 5 j 7 6 j 2 h 9 9 5 ",
"X 5 m m k z k z k k k 5 ; , 9 k k k z k l l l 7 ; , 5 l m m m z z k m l 5 ; 5 8 l z z l l m l m h ; "
};
