/* XPM */
static char *_63d54ba114f1_download_removebg_preview1715352537[] = {
/* columns rows colors chars-per-pixel */
"50 50 228 2 ",
"   c None",
".  c #003E3D",
"X  c #00413A",
"o  c #00513E",
"O  c #003F5F",
"+  c #003C65",
"@  c #04387C",
"#  c #095756",
"$  c #0B5255",
"%  c #19684D",
"&  c #15596A",
"*  c #0B5379",
"=  c #074B6C",
"-  c #1C6C70",
";  c #257077",
":  c #3D9759",
">  c #3E9A6F",
",  c #49895C",
"<  c #4CAE5F",
"1  c #459B6A",
"2  c #103BA1",
"3  c #0D4488",
"4  c #10448F",
"5  c #195A85",
"6  c #18569F",
"7  c #1E6798",
"8  c #19638C",
"9  c #276B8F",
"0  c #2556B7",
"q  c #2B6FAC",
"w  c #3475AA",
"e  c #2A65BD",
"r  c #2E6CBA",
"t  c #2D76AD",
"y  c #1D5ED6",
"u  c #265BD8",
"i  c #385ECD",
"p  c #3567C7",
"a  c #3578C7",
"s  c #2C63D3",
"d  c #2261DD",
"f  c #2D6ADD",
"g  c #2B66D8",
"h  c #316AD5",
"j  c #3464DD",
"k  c #3269DC",
"l  c #3B6CD8",
"z  c #2C78DB",
"x  c #357AD8",
"c  c #2871CD",
"v  c #2E5BEB",
"b  c #2E5BF2",
"n  c #305FF3",
"m  c #2A65E4",
"M  c #3363E3",
"N  c #3B65E4",
"B  c #346AE3",
"V  c #3463EB",
"C  c #3E6DEF",
"Z  c #3878EA",
"A  c #3A69F3",
"S  c #3B78F3",
"D  c #2D75EB",
"F  c #4069DF",
"G  c #447CDC",
"H  c #4576D4",
"J  c #487CCF",
"K  c #4379EA",
"L  c #4378F7",
"P  c #549F98",
"I  c #5CA285",
"U  c #64B090",
"Y  c #4A97A7",
"T  c #4D91B0",
"R  c #67B7A6",
"E  c #7CBFB0",
"W  c #66A1B7",
"Q  c #3C88C7",
"!  c #3E80D6",
"~  c #3B8DEA",
"^  c #3985E8",
"/  c #3D99EF",
"(  c #3899ED",
")  c #3A89F2",
"_  c #3B92F3",
"`  c #3D9DF4",
"'  c #3E9CFC",
"]  c #3999F5",
"[  c #37A6ED",
"{  c #35A5F3",
"}  c #3CA1F4",
"|  c #3DA5FC",
" . c #39AEF7",
".. c #3EB7FA",
"X. c #33ACEB",
"o. c #4192CC",
"O. c #4284D3",
"+. c #458ADA",
"@. c #558CDA",
"#. c #5B99D4",
"$. c #4F8ED4",
"%. c #609BDF",
"&. c #5FA0D6",
"*. c #6FB2CF",
"=. c #71AFDC",
"-. c #448DEB",
";. c #4689E8",
":. c #4594EB",
">. c #4897E8",
",. c #589BE9",
"<. c #4483F5",
"1. c #438AF5",
"2. c #4D87FC",
"3. c #438CF9",
"4. c #4988FB",
"5. c #5A8DFA",
"6. c #4394F4",
"7. c #4A95F3",
"8. c #439BF2",
"9. c #4395FD",
"0. c #4C94FC",
"q. c #449BFC",
"w. c #4D9CFC",
"e. c #4F98F7",
"r. c #5394F5",
"t. c #539EF9",
"y. c #518DE5",
"u. c #619CE2",
"i. c #689CEB",
"p. c #669BF3",
"a. c #729AEF",
"s. c #45A0EF",
"d. c #5CA6ED",
"f. c #42A4F5",
"g. c #45A3FD",
"h. c #4BA4FE",
"j. c #45ABFD",
"k. c #4BACFD",
"l. c #45AAF4",
"z. c #52A4FB",
"x. c #53ACFD",
"c. c #5BA7F6",
"v. c #42B2F4",
"b. c #4CB4F3",
"n. c #4BBAF3",
"m. c #44B4FE",
"M. c #4CB4FE",
"N. c #43BCFC",
"B. c #4CBBFE",
"V. c #54B4FD",
"C. c #51BBFF",
"Z. c #5AB1F8",
"A. c #6CA6E9",
"S. c #74ACED",
"D. c #74B3EE",
"F. c #77BAED",
"G. c #69A5F6",
"H. c #75A5F4",
"J. c #77BBF3",
"K. c #7BBBFE",
"L. c #7AB6F8",
"P. c #66B6FF",
"I. c #7DC4DA",
"U. c #4BC4F6",
"Y. c #4DCCF4",
"T. c #43C3FC",
"R. c #4DC4FE",
"E. c #43CAFD",
"W. c #4BCAFB",
"Q. c #47C3F7",
"!. c #54C4FC",
"~. c #5BC3FF",
"^. c #51CCFC",
"/. c #54CDF9",
"(. c #59D1FF",
"). c #57D0FD",
"_. c #7BC3F5",
"`. c #79C6F9",
"'. c #6FC5F4",
"]. c #81B99C",
"[. c #84C291",
"{. c #9ADCAB",
"}. c #99D7A6",
"|. c #98DBB0",
" X c #9EE0BC",
".X c #85BBDD",
"XX c #83B9EB",
"oX c #85AFFF",
"OX c #82B2FC",
"+X c #87BBF9",
"@X c #87C7C8",
"#X c #96D2CA",
"$X c #89C6D7",
"%X c #95C8DD",
"&X c #96D2D8",
"*X c #A1DAC7",
"=X c #A6DADC",
"-X c #A1D8D5",
";X c #B0DFD7",
":X c #A2E1C5",
">X c #B5E1DC",
",X c #B1E1D5",
"<X c #ADE0DB",
"1X c #8BC4E8",
"2X c #95CAE6",
"3X c #9CD4ED",
"4X c #9CD3E7",
"5X c #8BC2F1",
"6X c #83C4FD",
"7X c #8CCBFE",
"8X c #85C4F9",
"9X c #94C6FD",
"0X c #93CCFC",
"qX c #9ACDF8",
"wX c #98D2F9",
"eX c #8ED1FB",
"rX c #A6D7E8",
"tX c #B5D9E9",
"yX c #ABD5F2",
"uX c #ACDAF3",
"iX c #ACD9FB",
"pX c #A6D5FF",
"aX c #B7DDF9",
"sX c #B7E5E7",
"dX c #BDE7FB",
"fX c #C3DEEF",
"gX c #C8E9FC",
"hX c #D6F9FF",
/* pixels */
"                                                                                                    ",
"                                                                                                    ",
"                                                                                                    ",
"                                                                                                    ",
"                                                                                                    ",
"                                                                                                    ",
"                                                                                                    ",
"                                                                                                    ",
"                                                                                                    ",
"                                                                                                    ",
"                                                                                                    ",
"                                                                                                    ",
"                                                                                                    ",
"                                                                                                    ",
"                                                                                                    ",
"                                                                                                    ",
"                                                                                                    ",
"                                                                                                    ",
"                                                                                                    ",
"                              , [.}.{.{.|.|. X*X:X*X*X-X-X#X&X&X&X#X@XE I                           ",
"                        , ].#X>X>X>X;X,X;X=X-X-X<X=X=X<X=X4X4X2X1X3X3X$X@X&X$XW                     ",
"                  1 U #X>XsX;XtXtXtXtXtXrXrXyXyXuXuXrX&XrX4X2X5X0X5X5X0X0X9X+XOX=.T                 ",
"                : R $X.X%XuXdXgXfXfXgXaXtXyXyXiXiXuXrX3X3XwX0X7X7X7X7X6XL.p.G l p p 0 5             ",
"              < R I.5X+X1XXX2X2XtXgXhXgXiXpXpXpXwXwXwXwXeXeX6X6XK.K.G.G s u s k V V u e 9           ",
"            1 R I.F.K.K._.8XI.5X%XiXgXXXi.@.,.,.d.d.d.c.Z.Z.Z.x.e.;.g y m y f B V b v j r           ",
"          : P *.A.L.K.L.J.`.`._.XXiX@.J H ;.r.e.e.w.z.x.x.M.l.l.q.3.D d d m k B n b b m s w         ",
"          1 Y =.S.S.D.F.F.J.'.`.9Xa.p F K 2.4.e.e.z.z.x.k.l.v.l.' ' 9.D d m f B V V v M k           ",
"          : Y &.%.G.S.D.J._.`.K.9Xp F F L 4.4.0.h.h.h.k.k.M.v.v.| q.h.) z f f k V M M M k           ",
"            > T #.A.G.H.OXL.XX+X5.V F L S <.9.w.q.h.j.M.m.m.N.....j.j.g.^ c h h M M j h p           ",
"                T d.,.a.S.S.XXoXj F A L <.3.9.9.g.j.j.m.m.N...T.T.T...M.[ ! z f k B h r             ",
"                ; T u.a.a.OXoXH F V L L <.1.9.q.h.j.m.m.N.Q.E.E.E.E.T.B.k.6.Z f B s e 9             ",
"                  - w u.i.H.H.p N C C L ^ 1.9.q.h.j.l.b.n.U.U.E.E.E.E.T.C.h.Z f f p 8               ",
"                    & 7 %.0X@.J K K 2.<.7.8.s.l.x.k.b.b.b.~.n.!.R.R.E.T.B.z.r.l u *                 ",
"                        * F.K.G.G.c.z.P.Z.V.~.~.~.~.~.~./.^.v. .{  .X.X.8.>.K 2 4 &                 ",
"                        # 8 ,.y.>.c.g.j.j.m././.(.(.(.(.).Y.X.{ { | ] ] ^ r.0 @ &                   ",
"                          & q d.>.>.k.( ..B.U.Y.Y./.^.^.^.Q. .{ | ( g.8.r.p @ &                     ",
"                            * Q c.~ l.j.|  .N.U.Y.Y.R.R.R.v.{ { ( ` 7.r.H @ $                       ",
"                              * +.z.8.g.| | m.R.U.U.!.!.B.} ] ` ( 8.-.y.4 = %                       ",
"                                8 >.7.9.q.g.j.B.b.C.C.C.V.' ` ` 9.~ r.6 O %                         ",
"                                  w 7.0.q.q.` M.M.M.M.k.x._ _ 6.6.-.r + o                           ",
"                                    t 7.6.9.} l.m.k.k.k.] ' ~ ~ 7.a O #                             ",
"                                      o.>.~ 8./ g.j.j.| ' ~ / :.J = $                               ",
"                                        Q >.8._ h.` j.h.) _ ^ +.5 .                                 ",
"                                          o.~ _ q.q.9.h.) z ;.7 .                                   ",
"                                            +.;.1.0.3.1.;.O.q                                       ",
"                                              +.;.1.0.K x                                           ",
"                                                x <.2.K                                             ",
"                                                  O.+.                                              ",
"                                                                                                    ",
"                                                                                                    "
};
