/* XPM */
static char *_63d50c173e78_download_removebg_preview1715354760[] = {
/* columns rows colors chars-per-pixel */
"50 50 222 2 ",
"   c None",
".  c #010401",
"X  c #040B03",
"o  c #0A0B04",
"O  c #0C0E0C",
"+  c #050A08",
"@  c #150E01",
"#  c #1C0C00",
"$  c #120E0D",
"%  c #190706",
"&  c #011301",
"*  c #0B1500",
"=  c #041C00",
"-  c #0B1B00",
";  c #0C120B",
":  c #0C1A0B",
">  c #131500",
",  c #1D1301",
"<  c #141B01",
"1  c #1C1C03",
"2  c #13130C",
"3  c #1B160D",
"4  c #121C0D",
"5  c #1D1B0E",
"6  c #140D13",
"7  c #0F1411",
"8  c #071110",
"9  c #161615",
"0  c #191516",
"q  c #151914",
"w  c #191916",
"e  c #171518",
"r  c #1A1519",
"t  c #131919",
"y  c #1A1B1A",
"u  c #230C01",
"i  c #2C0C00",
"p  c #260D08",
"a  c #320D00",
"s  c #340B00",
"d  c #241403",
"f  c #2C1203",
"g  c #251A04",
"h  c #2B1C04",
"j  c #221B0B",
"k  c #2E1B0B",
"l  c #261309",
"z  c #341200",
"x  c #3A1300",
"c  c #331C04",
"v  c #3B1B00",
"b  c #351D0C",
"n  c #381F09",
"m  c #21171F",
"M  c #251B13",
"N  c #331E11",
"B  c #341A13",
"V  c #032401",
"C  c #0B2405",
"Z  c #052B02",
"A  c #0B2C03",
"S  c #0A2409",
"D  c #062909",
"F  c #0E2C0B",
"G  c #022409",
"H  c #112502",
"J  c #12240D",
"K  c #152C08",
"L  c #043300",
"P  c #033A01",
"I  c #0E3607",
"U  c #12340B",
"Y  c #133902",
"T  c #0E2610",
"R  c #152212",
"E  c #182314",
"W  c #132B11",
"Q  c #152019",
"!  c #1D251A",
"~  c #1C2B1A",
"^  c #1E341A",
"/  c #1F3B1D",
"(  c #1B3616",
")  c #2A2201",
"_  c #2B2A03",
"`  c #2B230C",
"'  c #2B2A0D",
"]  c #262406",
"[  c #332504",
"{  c #3C2402",
"}  c #332A03",
"|  c #35240A",
" . c #3B240B",
".. c #3A2B0B",
"X. c #352A08",
"o. c #3A370B",
"O. c #2D2313",
"+. c #212F1B",
"@. c #2A2817",
"#. c #332313",
"$. c #3B2415",
"%. c #352A11",
"&. c #3B2C14",
"*. c #372218",
"=. c #352A19",
"-. c #3B281B",
";. c #22351D",
":. c #243B1E",
">. c #273708",
",. c #1F3520",
"<. c #253423",
"1. c #293724",
"2. c #253C23",
"3. c #2A3B24",
"4. c #2C3D2A",
"5. c #273828",
"6. c #313C2F",
"7. c #393124",
"8. c #343E32",
"9. c #461F02",
"0. c #461C07",
"q. c #452203",
"w. c #4B2302",
"e. c #44240B",
"r. c #472A06",
"t. c #422911",
"y. c #452616",
"u. c #4D3907",
"i. c #443523",
"p. c #45332B",
"a. c #493726",
"s. c #433532",
"d. c #513B30",
"f. c #054402",
"g. c #134A08",
"h. c #0F5508",
"j. c #13540A",
"k. c #15590B",
"l. c #1C4714",
"z. c #1C5A11",
"x. c #234508",
"c. c #23421E",
"v. c #2D4E1F",
"b. c #275819",
"n. c #3C4415",
"m. c #1B6618",
"M. c #226117",
"N. c #264124",
"B. c #2A4225",
"V. c #2D432A",
"C. c #274428",
"Z. c #32442C",
"A. c #384B2C",
"S. c #334C2C",
"D. c #39572D",
"F. c #3C4C32",
"G. c #354432",
"H. c #3B5737",
"J. c #2E6123",
"K. c #366427",
"L. c #3B6634",
"P. c #376831",
"I. c #317A2A",
"U. c #524C02",
"Y. c #47411F",
"T. c #6E4D1A",
"R. c #6E5012",
"E. c #4B452A",
"W. c #455D3C",
"Q. c #455A37",
"!. c #664B30",
"~. c #635532",
"^. c #44643C",
"/. c #44693D",
"(. c #517E3B",
"). c #614E40",
"_. c #456740",
"`. c #536B48",
"'. c #4D7447",
"]. c #8D5F12",
"[. c #85651A",
"{. c #3B8932",
"}. c #6F9735",
"|. c #799944",
" X c #B79436",
".X c #C79337",
"XX c #909552",
"oX c #9D8B5B",
"OX c #A88E4D",
"+X c #A08B4C",
"@X c #A99E4E",
"#X c #BA9749",
"$X c #AA8E57",
"%X c #AD9455",
"&X c #AD915C",
"*X c #A6925C",
"=X c #B39D52",
"-X c #96A047",
";X c #B8BD56",
":X c #999069",
">X c #B19361",
",X c #A98C6A",
"<X c #C99A48",
"1X c #CD9F55",
"2X c #D0B156",
"3X c #C1BD64",
"4X c #B9C573",
"5X c #ECC151",
"6X c #F9C152",
"7X c #D2C76B",
"8X c #FECB6D",
"9X c #F9CC69",
"0X c #FFD06F",
"qX c #FFD975",
"wX c #FBD47B",
"eX c #FFDB7B",
"rX c #FDD377",
"tX c #FFD883",
"yX c #E4DA97",
"uX c #FFE587",
"iX c #EDDAA0",
"pX c #F8E9AE",
/* pixels */
"                                                                                                    ",
"                                                                                                    ",
"                                        c./.L Z                                                     ",
"                                  Z D.Q.W.`.`.L.P P m.                                              ",
"                              D H.H.2.B.Z.1.F._.'.L.g.P j.                                          ",
"                          Z _.C.C.C.C.4.3.G.3.V.H._.L.P.b.P l.                                      ",
"                        L.N.S.C.c.,.C.4.8.~ 6.4.3.B.A.Q.^.Q.D.g.            I C H Y                 ",
"                      l.B.B.V.B.C.C.T ~ t ; y ! <.1.Z.:.A.`.Q.B.f.        Z * E.Y.H x.              ",
"                    l.C.3.3.Z.R W : X . . . . . ; w R ^ 3.Z.A./.L I.    K.* ' > X.E.< b.            ",
"                  U c.V.3.J 4 o . . . . . . . . . . X : J W B.^./.L     & ' O.#.g i.a.C             ",
"                  3.B.3.J X . . . o o 2 6 9 7 O . . X . . = <.V.W.Q.g.'.< j d N # =.E.=             ",
"                :.Z.6.;.. . + + $ 2 3 0 w 9 t 9 7 7 8 X . X R ;.E.Q.Y x.* @ l , # #.=.K             ",
"              U B.6.<.: . : 9 6 0 9 9 9 2 q 9 9 y e 7 9 : . X ! 6.Q./.V > =.# d.# N @.H             ",
"              B.2.3.R . o y $ y 0 9 9 9 q 9 9 9 9 r 0 0 y O . ; ~ 6.W.H @ N u d.p N =.H M.          ",
"            c.B.2.( X . 6 r 9 w r 6 0 9 9 9 9 e 6 r r 0 e e O . +.<.G.< # | z p.l b &.>.g.          ",
"          ( c.B./ C . 2 r r 0 9 r r 0 9 r 9 9 e r e e r e r 9 . . ! 8.o k $.p b u k X.n.L           ",
"        A :.N.:.: . o 9 9 w e 9 9 e 0 9 9 9 9 y 9 0 9 0 e 9 9 9 . 9 j @ $.%.d O.k u X.o.Z           ",
"        A :.B.N.J o 7 9 9 e q 9 9 9 e 9 9 9 9 9 9 9 9 e 9 e 9 e 6 . k @ t.b , #.-.u { o.V           ",
"        A ;.N.:.q ; 9 0 9 9 9 9 9 9 9 9 9 9 q e 9 e 9 9 r 9 e e 6 % ~.f  .b f #.p.u n } =           ",
"        A <.B.2.q 4 w e 0 9 9 9 9 e 9 9 9 0 9 e 9 9 9 9 9 9 9 9 0 O.oXh {  .f *.p.# e.{ =           ",
"      m.D 2.B.2.J 4 0 0 9 w 9 9 e 9 9 9 9 9 9 9 9 9 e e 9 9 e 9 0 g $Xi r.b u *.p.# t.X.-           ",
"      j.D 2.2.^ w q 9 9 q w 4 9 9 9 e 9 9 e 9 9 9 q e e 9 9 9 9 4 g OXu r.y.u *.s.# | _ -           ",
"      h.D 4.B.:.w 4 9 9 e w 9 t e 9 9 9 9 e e 9 9 0 9 9 9 9 9 e 2 ] %Xi v B i N 7., [ _ =           ",
"      k.Z 2.:.2.J w 0 2 e 9 6 e 9 9 e 9 e e q 9 e e 9 9 9 9 9 q t ] OXa z f i f j > X.} -           ",
"      m.Z ;.c.B.E 9 9 0 9 e e e 9 9 9 q 9 9 9 q q 9 e q 9 9 9 e t j &Xs a 0.r. .&., X.} <           ",
"      h.Z ;.c.:.J 9 2 0 e 9 t e 9 9 9 e 9 9 9 e 9 9 e e 9 9 q e w j &Xs x z T.T.{ # | ..o           ",
"      z.H :.B.c.5 4 9 0 9 9 t e e e e e 9 0 9 e 9 9 9 0 9 9 9 9 0 f %Xa ].<X2X1XR.f { } , XX        ",
"      z.A ;.B.:.4 4 9 9 e e e e 9 q e 9 9 9 9 0 9 9 9 9 9 9 9 0 0 h %Xz .XrXrXuX#Xa { r.# yX-X      ",
"      j.K <.:.:.E 4 9 0 9 9 e 9 9 0 9 9 q 9 9 9 9 9 9 9 9 q 9 0 r p u.[.8XuXeXtX1X9.v v u pX3X      ",
"      f.W 4.V.3.w 4 0 0 9 9 t q 9 9 9 9 e e 9 9 e 9 e 9 e e 9 9 m , h =XwX8XrXtX1X9.e. .u iX7X      ",
"      f.T <.4.1.q q 9 0 0 9 e q q e 9 9 9 e 9 9 e e 9 e 9 e 9 0 0 , _ @X9XeXwXwX<Xw.{ [ g yX2X      ",
"        T <.3.1.q 9 9 0 9 q q e 9 e e e 9 9 9 9 q e 0 9 9 9 9 9 r 1 H U.2X9XqXrX<Xv { [ > yX;X      ",
"        Z ;.N.1.Q 9 9 0 4 2 9 9 q q 9 9 9 9 9 9 9 9 9 9 9 9 9 e r p j , #X5X6X9X#Xi r.{ , 4X}.      ",
"        L :.B.3.Q 9 9 0 9 q t t e e 9 9 9 9 9 0 9 r e 9 9 9 9 r m r 3 , {  X.X<Xw.u e.e.> |.        ",
"        Z ^ N.5.y e q q q 7 t 7 e e 9 9 9 e 9 t 9 9 e e 9 9 0 0 $ w ` , , u w.9.t.f $.] =           ",
"        Z :.2.2.Q e 9 0 q q t t 9 9 e 9 9 9 9 9 9 9 q e 9 0 0 4 3 ` :X, h t.c $.$.# *.' V           ",
"        A 3.C.4.q q 9 0 2 2 9 e e 9 9 e 9 9 9 9 9 9 9 9 9 e 9 0 5 g *Xu % # u u d # h o.V           ",
"      h.A ;.2.2.Q q 9 0 9 9 e e 9 9 9 9 r 9 9 9 e e 9 9 9 9 9 9 2 ) +Xz !.-.l ).i.d { _ =           ",
"      j.I 1.B.2.Q 9 9 9 4 9 0 e e 9 e 9 e e e e 9 9 r e r e e 9 4 O.&Xi x y.a b a.# t._ = J.        ",
"      j.H ;.C.2.Q 9 9 0 9 9 0 e r e e r e e 0 9 0 e e e e e e r 0 d $Xi w.0.i b i.% $...* b.        ",
"      z.K ;.C.,.Q t 9 w 4 9 0 0 9 9 9 9 9 9 9 9 0 e 9 e 0 9 9 9 9 j *Xa 0.0.i %.s.6 *.%.= b.        ",
"      z.F 1.C.4.Q 7 9 q 2 0 6 0 9 q 9 9 9 9 9 q 9 9 9 9 9 9 9 9 w j $Xi e.t.d %.s.% -.' V K.        ",
"      b.C ;.C.2.Q t t w q 9 9 9 e e 0 9 9 e e e 9 9 9 9 9 9 0 9 2 g $Xi { &., ` p.#  ._ V {.        ",
"      M.F ;.C.2.R 7 9 q 4 q 9 e e 9 9 9 9 9 e e 9 9 9 9 9 9 0 4 5 h >Xu { &., ` a.u  .) V {.        ",
"      j.U 3.B.<.R e 9 9 9 q 9 9 9 9 e q e 9 9 9 9 9 q q 9 9 9 9 w g ,Xi [ ` d &.y.# | _ V           ",
"        H W W W R 2 ; ; o ; ; 8 ; O ; O ; O O O ; O O O ; O O O o 3 # d d g u % k # | ' V           ",
"        A J S T 7 ; o o + + + + X X X o X X o X X X X X + & + + 8 X @.o 1 # p B , # g 1 =           ",
"          L L L L V V C C G Z G D V C         C S S C C C C C C G C A V = < < > - - = =             ",
"                                                                                                    ",
"                                                                                                    "
};
