/* XPM */
static char *_63d5d894d725_download_removebg_preview1715352294[] = {
/* columns rows colors chars-per-pixel */
"50 50 235 2 ",
"   c None",
".  c #180E04",
"X  c #021E03",
"o  c #0B1D01",
"O  c #0E150E",
"+  c #0B1C0B",
"@  c #0C1605",
"#  c #1C1503",
"$  c #16170C",
"%  c #1B130D",
"&  c #151B0E",
"*  c #1B1807",
"=  c #0E1B15",
"-  c #0B1717",
";  c #131413",
":  c #1A1514",
">  c #141B15",
",  c #1B1B15",
"<  c #15151A",
"1  c #1B151A",
"2  c #141B1C",
"3  c #1B1C1D",
"4  c #100F11",
"5  c #24130C",
"6  c #231903",
"7  c #221213",
"8  c #211A12",
"9  c #211D1B",
"0  c #251A16",
"q  c #2B1408",
"w  c #022402",
"e  c #0B2503",
"r  c #002B01",
"t  c #042408",
"y  c #0C230C",
"u  c #052A0B",
"i  c #0A2B06",
"p  c #12280C",
"a  c #083305",
"s  c #0E2414",
"d  c #0D2716",
"f  c #132314",
"g  c #16241B",
"h  c #1C221E",
"j  c #182918",
"k  c #133413",
"l  c #173818",
"z  c #0C3316",
"x  c #292201",
"c  c #352004",
"v  c #313F02",
"b  c #282313",
"n  c #222C1A",
"m  c #25221A",
"M  c #362918",
"N  c #29321D",
"B  c #30331E",
"V  c #0C1A24",
"C  c #141421",
"Z  c #1C1C25",
"A  c #1C1B2A",
"S  c #161A29",
"D  c #211C24",
"F  c #201D2B",
"G  c #1D2223",
"H  c #1B2829",
"J  c #16272E",
"K  c #232425",
"L  c #222C24",
"P  c #24232B",
"I  c #27292B",
"U  c #2B2C2A",
"Y  c #2B2725",
"T  c #3B2C25",
"R  c #322D2E",
"E  c #3A2520",
"W  c #26342D",
"Q  c #2B332D",
"!  c #253A2E",
"~  c #273327",
"^  c #33322C",
"/  c #3A3C2D",
"(  c #2C2C33",
")  c #2D2E3A",
"_  c #232932",
"`  c #332D34",
"'  c #312E3C",
"]  c #2E3235",
"[  c #2C3B33",
"{  c #2E323B",
"}  c #2B3B37",
"|  c #333336",
" . c #333B31",
".. c #33333B",
"X. c #38353C",
"o. c #34393D",
"O. c #3B3B3D",
"+. c #3A3731",
"@. c #4C341A",
"#. c #423C35",
"$. c #463E3C",
"%. c #004300",
"&. c #194517",
"*. c #134E10",
"=. c #22571F",
"-. c #25691C",
";. c #29472C",
":. c #2A5828",
">. c #2B4334",
",. c #354639",
"<. c #34533A",
"1. c #1F6B2A",
"2. c #2C6A29",
"3. c #30642C",
"4. c #2D7424",
"5. c #2C6A32",
"6. c #2E7532",
"7. c #327031",
"8. c #386E31",
"9. c #5F512E",
"0. c #4A4B3A",
"q. c #584C3B",
"w. c #4E4E35",
"e. c #666330",
"r. c #353442",
"t. c #353A44",
"y. c #3A3C44",
"u. c #3C3E4C",
"i. c #373447",
"p. c #35354A",
"a. c #423C41",
"s. c #413D4B",
"d. c #423A51",
"f. c #3D4346",
"g. c #3C434D",
"h. c #3C4948",
"j. c #3D4353",
"k. c #3F4D50",
"l. c #3C5047",
"z. c #3D4262",
"x. c #424645",
"c. c #44454C",
"v. c #434B4D",
"b. c #4A4948",
"n. c #485244",
"m. c #454453",
"M. c #4B4555",
"N. c #454B54",
"B. c #4A4B55",
"V. c #46455A",
"C. c #4B465A",
"Z. c #454C5A",
"A. c #4B4B5B",
"S. c #514B5C",
"D. c #504855",
"F. c #435153",
"G. c #4D5255",
"H. c #47505A",
"J. c #4B525B",
"K. c #4B5C53",
"L. c #53525A",
"P. c #545A5C",
"I. c #505156",
"U. c #595543",
"Y. c #516C56",
"T. c #4C4D61",
"R. c #4E4560",
"E. c #524D62",
"W. c #524563",
"Q. c #595963",
"!. c #555775",
"~. c #4E5460",
"^. c #5E6562",
"/. c #5F6975",
"(. c #666568",
"). c #6A6D77",
"_. c #6B7375",
"`. c #687777",
"'. c #707474",
"]. c #747A7A",
"[. c #877A6F",
"{. c #3C9C30",
"}. c #36A42A",
"|. c #419B3A",
" X c #509844",
".X c #52A547",
"XX c #84816B",
"oX c #878779",
"OX c #95846A",
"+X c #A18963",
"@X c #757B87",
"#X c #717592",
"$X c #7A8586",
"%X c #7C829C",
"&X c #88858D",
"*X c #808C92",
"=X c #8B9C9E",
"-X c #89969A",
";X c #90979D",
":X c #B29C88",
">X c #A99E92",
",X c #ABA79E",
"<X c #B3A793",
"1X c #ADA28E",
"2X c #8C9DA4",
"3X c #8B97A8",
"4X c #9399A7",
"5X c #8E9AB4",
"6X c #96A2AA",
"7X c #96A4A8",
"8X c #B1AFAE",
"9X c #CBBC99",
"0X c #C0AB96",
"qX c #C2BAAD",
"wX c #C7B9B6",
"eX c #DACAA6",
"rX c #DBDBAA",
"tX c #D9CAB5",
"yX c #DDDCB0",
"uX c #EBD8AB",
"iX c #F3DAAD",
"pX c #F7D5AF",
"aX c #E8D8B7",
"sX c #F4D9B7",
"dX c #EECDAA",
"fX c #E6E3AB",
"gX c #F6E4BD",
"hX c #E8E0B9",
"jX c #B5B9CA",
"kX c #CAC8C9",
"lX c #C1C3D2",
"zX c #EADDC2",
"xX c #F8DDC2",
"cX c #D6DCEA",
"vX c #E8E8EA",
/* pixels */
"                                    g > I I : ; 3 f                                                 ",
"                                  >.^.].Q.L.(.^.x.G t w &.                                          ",
"                                ,.].P.N.M.r.F A G 2 g y w u z                                       ",
"                            k h _.L.r.f.r.M.E.V.E.m.N.k.f.! d X a -.                                ",
"                          l > '.L.s.m.L.A.V.j.T.V.V.A.Z.m.B.m.x.L e *.                              ",
"                  r t l ! ! G.I.B.B.B.m.C.V.T.T.T.T.T.V.N.A.A.M.m.[ r %.|.                          ",
"            6.r z K._.).'.Q.x.v.c.B.A.B.Z.N.H.j.j.m.C.T.A.C.S.C.T.H.l.u r .X                        ",
"          7.r >.`._.B.V.V.B.G.v.J.g.H.B.N.Z.N.H.H.N.N.B.C.V.A.B.Z.C.N.v.u *.                        ",
"        8.w ~ _.G.y.) d.E.C.m.N.N.Z.Z.N.Z.B.N.m.Z.H.N.J.m.v.B.V.N.H.V.C.v.t 4.                      ",
"        3.y (.x.< r.m.E.M.V.Z.Z.Z.N.N.J.B.N.B.A.m.G.B.A.Z.N.F.N.k.Z.R.W.B.H r                       ",
"        &.o f < y.M.A.S.B.Z.T.Z.Z.N.C.A.B.M.D.D.M.S.B.M.Z.N.Z.N.F.B.R.V.c.s l 6.                    ",
"        =.o f Q D.C.C.S.A.Z.j.Z.C.V.R.A.B.M.D.M.M.D.B.M.B.Z.Z.Z.G.u.B.B.F > t 6.                    ",
"        :.i @ x.d.C.A.C.B.N.Z.B.C.A.A.C.C.A.S.C.C.M.A.B.B.B.V.A.M.Q.m.W 2 ~ p =.                    ",
"        5.r ,.B.L.E.Z.V.V.N.L.Z.Z.A.A.C.Z.B.M.B.B.M.A.S.m.A.V.B.d.M.o.= ,  .n a                     ",
"        :.+ c.A.V.Z.F.Z.S.m.A.Z.M.H.M.B.Z.g.t.F.Z.N.Z.N...A.B.B.S.y.- P.U 9 ^ X 4.                  ",
"      {.r h S.V.H.F.k.m.D.D.D.m.v.B.v.N.F.{ } N.F.Z.m.j._ b.B.D.a.: , n.8 4 O.+ 2.                  ",
"      }.w { y.g.N.N.Z.B.D.D.Z.Z.B.N.B.N.t.} r.N.j.J.d.A i.D.b.#.5 . B #.b % a.+ 8.                  ",
"      }.w c.C g.N.N.T.A.D.D.Z.Z.H.B.V.f.r.{ { f.J.m.r.A ' ' | 5 b :X<X8X#.% I y 2.                  ",
"      .X+ ) A j.Z.c.V.T.M.B.F.k.N.Z.N.r.) ( ....x.o.I 3 O.^ & 6 # @.qXaXU.$ f k                     ",
"       X+ C H y.B.y.d.C.N.N.k.k.Z.m.g.{ { ] ..] b.X.1 ; $ > x.,XqXM q 9X0.& X &.                    ",
"      4.y D < u.x...i.C.T.u.j.k.H.c.t.{ .._ | | +.U m ; ; , G > #.tXeXaXB ;.&.                      ",
"      -.t < D X.,.| r.d.T.u.p.g.Z.g...{ X.F | X.X.| O Q > $X6XJ.G.* 9.hXN <.                        ",
"        r O K Y [ [ ` r.u.p.) r.g.t.| ( X.Z ' r.] X.O o.T.lX!.*X/.$X# yXn Y.                        ",
"          ,.: +.Q [ ~ ] t.i.) X.o.{ { | X.Z ' ) ..I 3 G 5XjX#XR._ P.6 rXt 6.                        ",
"            j Y ] W Q  .] { X.] ..( o.| ' F F r.' ( ; I 8XjX!.#XS ^.q yXw 5.                        ",
"              N U G Q Q t...( X...| | ] | ( A ' O.Y m m '.vXQ.B.M.>Xc rXi                           ",
"              e h D ` ` ..' X.' ........| I ; | U ^ $ XXb qXkX>XqXM +XfXa                           ",
"                > < 3 | t.) ' X.] ] ......` ; h ^ +.# oXXX6 6 6 q @.iXfXi                           ",
"                  + g 3 ..r.r...Z K y.] ] { G ; ^ Y 5 q.hXaXgXuXxXsXsXfX                            ",
"                    ;.d 2 ( r.W Y 3 ( ' ..] U 2 $ +.0 . tXgXuXiXaXsXaX&.                            ",
"                      =.y + H ! ] h ; P ....] < < 1 R 5 [.iXiXiXgXeXx                               ",
"                          l r u f ^ 3 < 2 ( | I 1 ; 1 5 q 0X9Xe.                                    ",
"                              5.u @ , : , < : Y G - < 1 : 8 o                                       ",
"                                l + < < O I : < 4 < 1 (.$.+ :.                                      ",
"                                l.- f.G J.%XK.C b.F 1 9 [.p                                         ",
"                                d } h.V `.2X*X- @X@XD D $ e                                         ",
"                                + `.} } _.4X4XC f.-X_ t.K k                                         ",
"                                - $X= l.].4X4XA V 2X$XS W d                                         ",
"                                < -X- _.2X8XlX~.V =X=X- J.w 1.                                      ",
"                              O < &X3 ].&XlXkX_.H =X=X..y.d                                         ",
"                              > F &X: % % 5 % ; d =X2Xg...!                                         ",
"                              & O.b.8 <X:X:X1Xn d =X5X#XS !                                         ",
"                              & ^./ . aXpXdXaXw.g 2X3X5XV ,.                                        ",
"                            0.& j / # [.pXpXeX# W 2X5X3XJ ! w                                       ",
"                            n.Q + s $ 6 c @.c # m P C D w r                                         ",
"                            n. .    j #.9.@.w.U.$ F ` ,                                             ",
"                            0.        8 q q b b 7 1 8 o                                             ",
"                                      & T T M b % T B e                                             ",
"                                        n T T 0 * n i                                               ",
"                                            5                                                       "
};
