/* XPM */
static char *_63d5e826904c_download_removebg_preview1715352451[] = {
/* columns rows colors chars-per-pixel */
"50 50 233 2 ",
"   c None",
".  c #190E09",
"X  c #0B1C02",
"o  c #0C1A0C",
"O  c #071808",
"+  c #1D140C",
"@  c #1B1B0D",
"#  c #151808",
"$  c #170E15",
"%  c #0D1616",
"&  c #141414",
"*  c #1C1512",
"=  c #141B12",
"-  c #1D1B13",
";  c #141419",
":  c #1B151B",
">  c #151A1A",
",  c #1B1B1D",
"<  c #0F0C13",
"1  c #220F0D",
"2  c #241301",
"3  c #241A03",
"4  c #231C0C",
"5  c #291609",
"6  c #241615",
"7  c #241B14",
"8  c #201519",
"9  c #241C1A",
"0  c #2C1915",
"q  c #321801",
"w  c #022303",
"e  c #0C2302",
"r  c #022C01",
"t  c #0B2A04",
"y  c #0A220C",
"u  c #05280B",
"i  c #11230D",
"p  c #152A08",
"a  c #003A01",
"s  c #063303",
"d  c #153408",
"f  c #0B2412",
"g  c #152214",
"h  c #15221C",
"j  c #1A261D",
"k  c #162A18",
"l  c #0D3215",
"z  c #19341A",
"x  c #2A210B",
"c  c #272A0D",
"v  c #31240D",
"b  c #252718",
"n  c #372919",
"m  c #27351C",
"M  c #33311E",
"N  c #1C1C21",
"B  c #1B1824",
"V  c #0B1A2F",
"C  c #211D24",
"Z  c #261E26",
"A  c #2B1B35",
"S  c #1D262A",
"D  c #1B2725",
"F  c #1D302B",
"G  c #232224",
"H  c #24242B",
"J  c #2B242C",
"K  c #2B2C2D",
"L  c #2A2B26",
"P  c #332E2E",
"I  c #382A29",
"U  c #25342B",
"Y  c #2B312D",
"T  c #283A28",
"R  c #373628",
"E  c #2C2E34",
"W  c #2E2D3C",
"Q  c #282932",
"!  c #312C3B",
"~  c #342932",
"^  c #2C3434",
"/  c #2D333A",
"(  c #2C3836",
")  c #323435",
"_  c #333A35",
"`  c #32333B",
"'  c #343A3C",
"]  c #3B393A",
"[  c #4B331C",
"{  c #4D3E3B",
"}  c #074606",
"|  c #17430C",
" . c #164516",
".. c #195519",
"X. c #10580B",
"o. c #29521B",
"O. c #304516",
"+. c #17770B",
"@. c #206B1E",
"#. c #295624",
"$. c #284A32",
"%. c #34433A",
"&. c #1B6D25",
"*. c #296A27",
"=. c #396935",
"-. c #347032",
";. c #4F461F",
":. c #544A3A",
">. c #514C2E",
",. c #6C5C3B",
"<. c #624630",
"1. c #42663B",
"2. c #407B34",
"3. c #76673B",
"4. c #63633D",
"5. c #342C43",
"6. c #392D49",
"7. c #343443",
"8. c #393544",
"9. c #343C43",
"0. c #3B3D44",
"q. c #393749",
"w. c #2B3347",
"e. c #423D4A",
"r. c #493D41",
"t. c #443E52",
"y. c #402F4F",
"u. c #3B4244",
"i. c #3D424C",
"p. c #394845",
"a. c #3E4752",
"s. c #42444D",
"d. c #49434C",
"f. c #454B4E",
"g. c #4A4A4E",
"h. c #484641",
"j. c #495547",
"k. c #444553",
"l. c #4A4655",
"z. c #444C54",
"x. c #4A4B54",
"c. c #4C465B",
"v. c #454C59",
"b. c #4B4A5A",
"n. c #464759",
"m. c #514858",
"M. c #4D525C",
"N. c #4A5456",
"B. c #55575A",
"V. c #54504C",
"C. c #66594B",
"Z. c #615A52",
"A. c #58695E",
"S. c #4F6E48",
"D. c #676558",
"F. c #75685A",
"G. c #7D7050",
"H. c #554C60",
"J. c #565766",
"K. c #565F77",
"L. c #5A6367",
"P. c #566273",
"I. c #5C7361",
"U. c #64646B",
"Y. c #616D6C",
"T. c #6A6865",
"R. c #696C76",
"E. c #726E76",
"W. c #697373",
"Q. c #777376",
"!. c #6D7863",
"~. c #836D5C",
"^. c #84755A",
"/. c #91795F",
"(. c #8A7769",
"). c #927862",
"_. c #349536",
"`. c #388736",
"'. c #43963D",
"]. c #53AA51",
"[. c #958977",
"{. c #A6987B",
"}. c #B49E79",
"|. c #B59C73",
" X c #A88E73",
".X c #B6A17D",
"XX c #ABA777",
"oX c #767884",
"OX c #737A93",
"+X c #877B89",
"@X c #7C8388",
"#X c #858287",
"$X c #848A94",
"%X c #8C9699",
"&X c #969A9D",
"*X c #998C84",
"=X c #A89884",
"-X c #A29899",
";X c #ACA78B",
":X c #B3A788",
">X c #BCAC97",
",X c #ACAC8F",
"<X c #9599A4",
"1X c #8D95A2",
"2X c #9EA2A3",
"3X c #ACA7A9",
"4X c #B0AFB4",
"5X c #C3A688",
"6X c #CBB293",
"7X c #CEBFA1",
"8X c #C3BCB8",
"9X c #DBC49A",
"0X c #E6CB9C",
"qX c #FCDA9B",
"wX c #F6D699",
"eX c #DDC4A8",
"rX c #D2C8B8",
"tX c #E6C8A3",
"yX c #EDD7AC",
"uX c #F4DAA4",
"iX c #F7D9A8",
"pX c #EDD6B2",
"aX c #E7D9BB",
"sX c #F6DAB5",
"dX c #F7CEA0",
"fX c #F9E1B5",
"gX c #BCBCC4",
"hX c #D5D2CF",
"jX c #DAD7D7",
"kX c #EADAC2",
"lX c #E4DFDB",
"zX c #F4F5F3",
"xX c #E1E4E9",
/* pixels */
"                                                                                                    ",
"                                                          o G 0.l.N.%.                              ",
"                                                h F ( 9.0.` G : H B.W.L.l                           ",
"                                          r z V.R.oXR.R.R.R.E.Q.d.> z.U.Y.w -.                      ",
"                                        w j.J.e.t.t.k.k.c.b.x.f.g.E.8.c.J.I.w =.                    ",
"                                      r y = $ C A 5.t.b.b.x.x.N.g.f.H.t.b.N.T w t w w u a           ",
"                                    o % , , e.e.c.l.z.f.v.v.k.i.M.x.n.M.M.z.Y.Y.Y.W.W.B.z r a       ",
"                                  , > > e.d.l.x.l.x.z.z.x.z.z.M.k.v.v.x.a.x.M.k.b.b.b.L.W.I.u ..    ",
"                                k ; H s.x.z.v.x.x.a.v.x.v.b.l.l.b.v.v.v.v.b.b.b.b.d.Q ^ z.L.B.y `.  ",
"                                g Y f.f.x.b.i.x.z.f.0.q.s.k.m.c.b.v.v.v.v.v.x.l.l.N.u.G ; H m.h *.  ",
"                              l h z.f.N.x.z.x.s./ ` ` 0.! M.n.b.c.c.v.v.v.v.l.x.g.d.N.z.S > , i } '.",
"                            $.% p.f.z.z.f.i.` K ` N , , ` k.b.b.m.b.c.b.a.v.f.g.g.x.x.z.f., < p s '.",
"                            l F a.M.k.z.s.E & & * 9 L ; E 9.b.k.m.m.l.n.a.a.f.f.g.l.n.b.s.j.= 1.X._.",
"                          S.u p.N.i.x.E ; ; C 3XjXlXhX& K ^ i.v.b.b.c.n.N.N.z.z.M.l.c.c.x.9.k d '.  ",
"                           .O f.z.0.H B > , * G P V.4Xh.$ 9.a./ a.v.v.c.v.v.v.z.k.k.n.q.7.J.u.u -.  ",
"                          s F f.h., G 3XjX4XQ.G * 6 * * N E ` 7.v.v.c.c.H.b.M.v.a.M.n.q.7.W z.k ..  ",
"                        | t %.u., & + - & & 7 @ . 7 n R - E 7.W a.z.n.m.m.c.b.v.v.v.v.7.` ! ` D s   ",
"                        o.e %.; & Z.Z.C.D.D.C.C.^.{.:X[.@ Y ! Q i.k.x.c.m.l.b.v.v.v.v.7.! ` H j u   ",
"                        o.r u f < 6X5X~.2 3 [ 3.|.tX0X}.3 6 ~ Q 0.z.b.v.l.n.m.c.b.k.k./ E ) > j u  .",
"                        *.s r 1.x 7X<.q :.kXsXsXiXiXuX|.3 7 Z J ' z.N.z.c.c.c.k.M.x.i.' ( ) % g e  .",
"                          } @.`.# 7X9XaX4Xb 7 2 /.pXsX}.M 9 & G ` x.x.a.v.k.e.7.l.V.' ( ( ) ; = r ..",
"                          +.    t =XrXx j N.L.jXn ).sX|.:.+ + G 7.c.z.i.a.z.0.E 0.l.( ^ ( ) * # s   ",
"                                s !.>Xc L.P.P.<XrXx sX>XF.6 & J 8.c.i.9.p.p.' ^ ' 0./ / ` ) : g X.  ",
"                                O.S.;XM D w.K.J.zX0 tX5X(.9 b J 5.n.8.^ ' ( ^ / ` / 7./ ` ( & k X.  ",
"                                z D.,X[ 7.V OXK.zXx 0X6X{.*X7 J 8.! 8.] K ^ ' ^ 7.5.6.w.Q ^ f #.    ",
"                                m F.:Xn &Xa.K.4XhXv yXtXXX-X6 ~ ! ` ) E %.> ^ W 5.6.6.Z ( l r *.    ",
"                                e (.kX[ [.3X3X8X:.G.uXuX:X=X. K ) ` K ( ^ S 9.8.6.6.A ; T r &.      ",
"                                  G.sXeX[ v n n ,.yXuXqX|.^.7 P ) ) _ U > ^ w./ 5.5.N = w } _.      ",
"                                  C.yXfXsXsXiXiXwXqXqXiX.X5 4 P Y R ^ = S ^ / ' / j X w a ].        ",
"                                    XXuXsXiXiXqXqXwXwXdX X0 L ] ] Y > N ^ ' ( Y o t o.r '.          ",
"                                      ;.aXfXuXqXsXiX0X5X=X. L ^ K , ; ` E ^ g e  .*.  +.            ",
"                                        r ;.>.3.^.).).(.] > H D ; : H N G = e #.                    ",
"                                              d # + 0 1 = ; ; > = = & : p # d                       ",
"                                              =.= -XI 9 = ^ N u.L = , : c ,Xo.                      ",
"                                                j.r.Z C W.D B <XoX; ] 8 # c r                       ",
"                                                @ . $ J.@XD P.<X@Xn.Z h.7 :.w                       ",
"                                                M I K %X%X; $X1XOXK.; - + _ -.                      ",
"                                                V.0 E %X$X% @X2XOXE.% R 6 o a                       ",
"                                                (.0 8 L.@XN jXxXgX2X= _ * g                         ",
"                                              @ 8X5 J ; ' > L.T.V.V.= = : O                         ",
"                                              - { 6 T.oX; & M 5 3 R = & d.o                         ",
"                                              = 9 * 9 U.U.- :X:XXX>XM ^ #Xe                         ",
"                                              R K B.J.Z < @ aXyXpXkX7 ) #Xr                         ",
"                                              t i A.+X+XQ.@ ,.0X7X<.7 , O                           ",
"                                                  o : 8 . 7 2 2 2 2 + O                             ",
"                                                  r 7 + + F.~.F.G.{ #                               ",
"                                                    # I 4 . 6 1 4 b                                 ",
"                                                    e M v # I I L p                                 ",
"                                                      w t X b b g                                   ",
"                                                                                                    "
};
