/* XPM */
static char *_63d5a84b215f_download1715297140[] = {
/* columns rows colors chars-per-pixel */
"50 50 100 2 ",
"   c #36342F",
".  c #38352E",
"X  c #363634",
"o  c #393733",
"O  c #363835",
"+  c #3A3935",
"@  c #393738",
"#  c #3C3B3A",
"$  c #403B37",
"%  c #413D3A",
"&  c #44423E",
"*  c #48403D",
"=  c #464542",
"-  c #494643",
";  c #4C4945",
":  c #4E4C4A",
">  c #514A44",
",  c #524E4A",
"<  c #584E4C",
"1  c #4F504A",
"2  c #55524D",
"3  c #59544E",
"4  c #4E4E50",
"5  c #545352",
"6  c #5A5651",
"7  c #5D5954",
"8  c #5F5C59",
"9  c #625C55",
"0  c #625D59",
"q  c #685F5A",
"w  c #66605C",
"e  c #6B645D",
"r  c #6E6A5E",
"t  c #70675E",
"y  c #6B6562",
"u  c #6E6863",
"i  c #716760",
"p  c #726B64",
"a  c #7C6F66",
"s  c #746E69",
"d  c #796F68",
"f  c #7A7067",
"g  c #76716B",
"h  c #7B736C",
"j  c #7F786E",
"k  c #7D7670",
"l  c #7F7973",
"z  c #80746E",
"x  c #807771",
"c  c #857C74",
"v  c #8A7D75",
"b  c #847E79",
"n  c #887F79",
"m  c #868277",
"M  c #8A8077",
"N  c #86807C",
"B  c #8C837A",
"V  c #92867D",
"C  c #93887F",
"Z  c #8E8981",
"A  c #918781",
"S  c #948A82",
"D  c #9A8E85",
"F  c #938E88",
"G  c #9C8F89",
"H  c #9B9186",
"J  c #9D938A",
"K  c #9F9888",
"L  c #A08F88",
"P  c #A09287",
"I  c #A2958C",
"U  c #A4998E",
"Y  c #AA998F",
"T  c #A39790",
"R  c #A69B91",
"E  c #AA9D94",
"W  c #A99E98",
"Q  c #ADA196",
"!  c #AEA299",
"~  c #B0A297",
"^  c #B3A69C",
"/  c #B8A59F",
"(  c #B5A99E",
")  c #B9AB9F",
"_  c #B5A6A0",
"`  c #B6A9A1",
"'  c #BBADA4",
"]  c #BEAFA8",
"[  c #BEB0A5",
"{  c #BFB1A8",
"}  c #C0AFA5",
"|  c #C0B1A6",
" . c #C2B4AA",
".. c #C8B7AD",
"X. c #C6B9AE",
"o. c #C8BAAF",
"O. c #C6B9B0",
"+. c #CABDB3",
"@. c #CDC0B5",
"#. c #D4C4BB",
/* pixels */
"D ^ ( ! ( ( ^ ! ^ ^ ^ ^ ^ J 8 ' | [ .. .@...[ [ [ [ [ ~ ( ) 2 > ^ ( ! ( ^ ^ ! ! ( ! ' ' ( ^ U ( ! 7 ",
"u Q ( ( ( ! ( ! R ^ ^ ^ ^ B 7 ' ' |  .{ U | #.[ [ [ } D [ ) 3 > +.! U ! ^ ( ( ( ( ! ^ ^ ( +.O.' ! 2 ",
"5 R R R R U H A p p p p y & 6 |  .' [ J E W { | ' [ [ [ ^ Q 9 ; H ( ^ Q R W ^ ! ( ( ! R R U E I B # ",
"# O O + O @ @ # + j z A u # ; ^ ` ( ( P E ( ' +...} [ [ [ ) w . e H x o O X     X + + # O O + + + # ",
"K Q H m = @ 6 H E [ [ (  .S , ^ / ^ ( ^ ^ ^ ^ ^ ^ ` ` ` ) ^ 3 O e U W R R H p # # p j m M J U V ^ R ",
"[ [ [ [ S + y ( [ | [ +.' ' 8 V ^ ^ ^ ( ^ ^ ^ ^ ^ ^ ^ ^ ^ ! 2 2 ' ' [ [ ' ' ( x 2 @.[ [ [ [ [ [ ' | ",
"[ [ [ @.[ O y ( W ' | ' ( / & v W ^ ^ ( ^ _ J E ^ ' ( ( ^ ! 3 s } ' ' | } ^ ' v 6 [ [ [ [ [ [ [ ' [ ",
"[ [ [ [ { O u ` ^ | } | ' J O S ^ E ~ ^ ^ ^ ^ W { ` ! U Q ^ e r ' [ ' ' ( [ ..q j [ [ ) E [ [ [  .[ ",
"^ [ [ [ [ # c ( ( ( ^ ( ^ J X F ^ R R ^ {  .! ( ` ^ ^ ^ ^ ! n 6 O._ ( Q ^ ^ / > H [ [ [ [ [ [ { ' E ",
") ) ' ) ` 2 c ! J ^  ._ ( T O n _ ^ ! ' _ ^ ( _ ^ ^ ^ ^ ^ ! x 5 ! ! ( _ ^ W ^ > J ` ^ _ [ ` { { | [ ",
"^ ^ ( ^ ( w f ( ' } _ ^ ^ J o o J c ^ ^ ( ! ! ! ^ ^ ^ ^ Q C , , ! _ ^ / ~ ^ E * R ^ ^ _ ^ ( ^ _ ^ ( ",
"( ( ( ^ ( y = V J T T J I p @ o : , 7 8 8 7 y l N A x 8 2 ; @ # S I T x 9 3 - o U ^ Q ! ( ^ ! ( ( ^ ",
"` I ! ( ^ 6 - : 5 , > - - : : : f B S V > = @ 4 5 2 2 - 3 3 2 X - i M , : 4 - o J ^ ) ^ ( ! _ ( ^ ^ ",
"^ ! ^ ^ ^ # M E ' ' ^ J ^ ` _ I ' [ [  .) e # M ' [ [ ' | [ E $ v }  .` ` ` R % g ^ ^ ^ ( J ! _ ^ ^ ",
"^ ^ ^ ( D = ^ ` I  .{ ] [ ' { ^ [ { { ` [ S # Q ' .. .X.^ ' [ r L [ [ } ' ! ` = 1 Q ^ ( ^ ( ( ( ^ ^ ",
"H I ^ ! 0 = ! W ! ^ ^ ^ ( E ` ( ( ` ( ^ ( H # ! ) ) [  ...+.[ t T [ ^ } } ' { c O + V D ! ^ ! _ R H ",
"- - , 7 & > D U U E W ^ ` ` ( U I T U ! ( C @ R [ { { { { [ { r ^ ) / } | } ' B o 8 = 2 2 7 6 2 3 , ",
"# F K P F < ; - * = & u h p -       $ ; 6 = # J ` { _ ^ [ Q ' h W } }  .[ ' [ J 6 O.| R J J T J m + ",
"2 ' ' | ' } | / ( ^ ! W I J 2 X h j j j h s # E ( ^ ^ ^ ^ Q ! g V } | | ' ) ' I e ] ] { { [ [ [ [ s ",
"6 ' ' Y ' } ' ' ] } { |  .] s H  .[ | ( ' ! # E ( ! ^ ^ ^ ^ ^ n n [ { ' | | ..I u ^ _ ' ` ' ' ` ^ V ",
"6 ( ^ ^ ( ! Y ! ( _ ( / ( ( p D [ [ E ! [  .+ M ! W ^ / ^ ^ ! b n { ] ' [ [ [ H y ! ^ ^ ^ ( ^ ' ^ S ",
"5 ! ^ ] ] ^ ! / ^ ^ ^ W ^ ! - W | P [ [ ' ^ + # q s h p e h 8 X M ^ ( ( ^ I ^ c 2 J j e u f f e i , ",
"# n A G I J S M p > $ + + O =  .[ | ..[ W E + 9 c A V x g p - @ m ` ^ ^ ~ ^ ! c O @ g J H D A V x * ",
"J A n g & @ + s p B B v p % O B  .{ { ' [ Q # Y ] ] [ | ) [ [ r m ( ^ ^ ^ ^ ( J @ r ` { | { [ W ( ( ",
"' |  .{ 7 = J W | [ ' [ U B @ f ^ ( ' { ` R + U ] ' | [ [ I ) x m Q R [ ( ( ( ! - F ] ] ' ..} } | | ",
"E ]  .] q = ' [ [ X.[ [ [ A o u ! W ` ^ R Q + S ' +.{ ' [  .[ n r ( ^ ` +.! ( _ e n ] ` ' | [ ' @.Y ",
"E ' ' E 7 s ' ^ ( ..[ ^ ! f # f _ ! _ ( Q ^ + C _ ` { ' ( ` ( B u ^ ^ Q ( ! ( _ y V _ ^ ^ ' ' ' ' ' ",
"^ ^ ^ ^ 7 M [ ~ Y | [ [ [ p O h ^ ` [ ( [ ^ o c ( ^ ^ ( ^ ^ ( S 6 ^ ^ U ^ ^ ( ! 7 M _ { _ _ ( ^ ) ^ ",
"^ ! E ^ 7 c ` | [  .{ [ [ V O V { ` ! ^ ^ J X j _ _ ! { ' ^ ^ c # Q ( ^ ( ( ( ^ % l ! ^ ( Q ^ _ ^ ^ ",
"! Q J D o ; ' ..[ ' ' [ [ P @ 1 A A A V C e + q B ! ` ! ^ ^ ^ u @ B R Q I Y S D X # T ^ ! ^ T K D ^ ",
"j j p % @ - ` ` ^ R R _ ) I + X e p 6 . O 6 0 + 1 5 2 6 3 6 : @ + + O , 9 7 2 . o o 1 6 3 2 + + 9 a ",
"_ ' ' [ Z - W ^ ^ ( ( ^ ( P # U | [ [ |  .Q +.X.) J D H U I h + X g J ( | [  .W U J J J J Q [  .| ' ",
"W ] [  .R = E ^ ( ^ ^ ^ ^ ! , ' [ ` ! | [ [ [ [ [ ' [ [ | { ` 9 6 E ' ' Y ) [ [ #...[ [ Y Q [ ..| E ",
" .[ | [ U = R ^ ` ` ' ^ ^ ^ , [ [ Q ' [ | [ [ [ [ ( ~ ' | } ' n 2 ^ ' | ~  ...| [ ' | [ [ [ [  .| ..",
"^ ( ^ ^ R = R ! ( R W ^ ` ! - _ ^ ^ ^ ( ^ ^ ^ ^ ^ ( ^ ( ( ^ _ B # Y ) ^ ^ ^ ^ ^ ( ~ Q ^ ~ ~ ( ( ^ ( ",
"U ^ ^ ^ I = R _ ( Q I ^ ^ H # J ^ ^ ^ W ( ^ ( ^ ( / ^ ^ ^ ^ ( n + I ^ ( ( ^ ( ^ ^ Q ^ ^ ( ( ( ( O.' ",
"Q ~ ^ ! D = K _ ^ Q ! Q I a X ; H ! ` ` ^ Q Q Q D D Q W Q ^ Q f + B W ^ Q Q ^ M ! ! ^ _  .^ ^ ^ ^ ^ ",
"B f 2 1 & O ; 2 2 , 2 ; & o + @ = 2 2 2 2 2 1 = . o = - ; : 2 & @ ; - 2 , 2 2 ; 2 , 2 f M B B B B M ",
"3 2 7 2 % & K J A r j c M B C C C C C V 2 o : R S U H A A h j A I H T T W C V t ; X - 2 6 7 3 7 6 2 ",
"[ ) [ R w = ( [ | [ ' ' ' [ | Q ' [ | +.( 6 V [ } [ [ {  .[ [ { | [ [ [ E E Q H M @ I ' ' ' ' [ R E ",
"' Q ) | J - ^ ` [ [ ..' ' |  .} [ [ [ |  .7 H ^ ^ ' { [ } W ' [ ] ' ..} [ ' } ' j # [ ` ^ [ [ [ '  .",
"I ^ ( ' Q & Q ( ( ( ^ / _ ' ] ] { U Q ^ ~ r H ^ Q ` ^ ^ ( ] ( ^ ( ^ ` ' ` ( ( E t ; ^ ! R ^ ( ' ' ( ",
"^ ( ) ^ W - Q ! ( ( ^ ^ ! ^ ( ^ ^ ( ^ ` ^ e y Q O.( ^ ` ^ ^ ^ ^ ( I ^ ^ | ' [ ^ f H ! { _ ( U ^ ^ ^ ",
"Q I J J p + 8 c b d d b b v c c A G f M v $ @ c J T R R E R Q ! ^ / ( W ^ ^ Q J 9 0 T Q O.` ( Q ^ ! ",
"- ; = # O & a p y s g u o X # o 0 N b c s % o X # = = = = = ; 8 n l p c c w ; = # o = - , , , > , ; ",
"& J Q R R ' [ { ( [ [ [ D = O D ^ |  .+. .E E ! Q F S J D g O @ ; 6 e Z V j w e 7 7 p p e 6 , = o X ",
"F [ ` [ [ [ { P E [ [ [ ' b 6 O.[ [ [ [ ' } [ | [ [ ' { [ ^ - - ` ' ] [ | [ [ [ ' ' | { { ' +.H r O ",
"U [  .[ [ | [ ( [ [ [ { ] H 7 { | ' [ [ | O.[ [ { [ [ O.{ ' r : ` ' [ } [ ' [ { | | { ` ^  .' ' / * ",
"K [ K { ..' '  .' } ' I ~ I < ' | ) ^ } [ | [ Q Y ~ | [ | ' f 6 } | } ' Y ) o.[ ' | [ ' { ' [ ..' 2 ",
"K ( ( ` ` ` _ ) ( ( ^ ~ ^ I 3 ' ' ( '  ...[ ' [ [ [ [ [ | ' 3 2 ( ) ' ) ' | | ( { [ [ | | [ ' { ( 3 "
};
